<svg id="Layer_1" viewBox="0 0 24 24" xmlns="http://www.w3.org/2000/svg" data-name="Layer 1"><path d="m22.95 4.356c-.02-.293-.167-.562-.403-.737-.101-.074-2.514-1.833-6.743-2.432-4.228-.596-7.036.422-7.154.465-.275.103-.492.32-.591.597-.034.093-3.294 9.415-1.531 11.788 1.626 2.191 6.056 4.196 6.555 4.418.128.057.267.086.405.086.688-.078 5.369-.737 7.658-2.434 2.352-1.791 1.809-11.652 1.803-11.751zm-12.029 1.34c.387-.291.867-.389 1.478-.304.605.086 1.042.315 1.333.702s.391.87.305 1.477c-.07.5-.499.86-.989.86-.463.005-.872-.331-.972-.761-.198.343-.591.551-1.007.49-.547-.077-.927-.583-.85-1.13.086-.608.316-1.045.703-1.335zm7.534 7.047c-1.144.692-2.887.762-4.362.533-1.853-.262-3.175-.825-4.041-1.723-.384-.397-.373-1.03.025-1.414s1.031-.372 1.414.025c.545.563 1.488.934 2.883 1.131 1.398.2 2.406.104 3.084-.287.48-.274 1.09-.109 1.366.368.275.479.11 1.091-.368 1.366zm1.095-4.392c-.075.55-.595.929-1.13.851-.417-.059-.737-.366-.832-.751-.197.342-.591.549-1.006.49-.547-.077-.928-.583-.851-1.13.086-.608.315-1.045.703-1.335.388-.291.872-.387 1.478-.304 1.193.169 1.807.983 1.638 2.179zm-3.833 11.853c-1.941 1.457-4.432 2.587-4.8 2.75-.128.057-.266.086-.405.086-.685-.077-5.372-.737-7.659-2.434-2.354-1.792-1.809-11.652-1.802-11.751.019-.293.167-.562.402-.737.064-.047 1.21-.872 3.253-1.586-.72 3.114-1.158 6.847.216 8.697.304.41.678.805 1.09 1.185-.485.268-.913.572-1.252.946-.371.409-.34 1.042.069 1.413.408.369 1.041.341 1.413-.069.338-.372.862-.662 1.547-.891 1.788 1.223 3.707 2.125 4.485 2.471.447.194.951.294 1.438.244.086-.009.886-.103 2.006-.323z"/></svg>