<?xml version="1.0" encoding="iso-8859-1"?>
<!-- Generator: Adobe Illustrator 19.0.0, SVG Export Plug-In . SVG Version: 6.00 Build 0)  -->
<svg version="1.1" id="Capa_1" xmlns="http://www.w3.org/2000/svg" xmlns:xlink="http://www.w3.org/1999/xlink" x="0px" y="0px"
	 viewBox="0 0 375.2 375.2" style="enable-background:new 0 0 375.2 375.2;" xml:space="preserve">
<g>
	<g>
		<path d="M318.75,0H56.35c-15.6,0-29.6,6.2-39.7,16.5C6.55,26.6,0.15,40.7,0.15,56.3c-0.1,31.1,25,56.2,56.2,56.2h262.5
			c15.6,0,29.6-6.2,39.7-16.5c10.1-10.1,16.5-24.2,16.5-39.7C375.05,25.2,349.95,0,318.75,0z M75.05,75.1
			c-10.3,0-18.8-8.4-18.8-18.8c0.1-10.4,8.5-18.8,18.8-18.8s18.8,8.4,18.8,18.8C93.85,66.6,85.45,75.1,75.05,75.1z"/>
	</g>
</g>
<g>
	<g>
		<path d="M318.85,150H56.35c-15.6,0-29.6,6.2-39.7,16.5c-10.1,10.1-16.5,24.2-16.5,39.8c0,31.1,25.1,56.3,56.3,56.3h112.5v42.8
			c-5.6,3.2-10.3,7.9-13.7,13.5h-80.1v37.5h80.1c1.7,2.8,3.6,5.4,6,7.7c6.7,6.8,16.1,11.1,26.4,11.1s19.7-4.3,26.4-11.1
			c2.4-2.2,4.3-4.9,6-7.7h80.1v-37.5h-80.1c-1.7-2.8-3.6-5.4-6-7.7c-2.2-2.2-4.9-4.3-7.7-5.8v-42.9h112.5c15.6,0,29.6-6.2,39.7-16.5
			c10.1-10.1,16.5-24.2,16.5-39.7C375.05,175.1,349.95,150,318.85,150z M75.05,225c-10.3,0-18.8-8.4-18.8-18.8
			c0-10.3,8.4-18.8,18.8-18.8c10.3,0,18.8,8.4,18.8,18.8C93.85,216.6,85.35,225,75.05,225z"/>
	</g>
</g>
<g>
</g>
<g>
</g>
<g>
</g>
<g>
</g>
<g>
</g>
<g>
</g>
<g>
</g>
<g>
</g>
<g>
</g>
<g>
</g>
<g>
</g>
<g>
</g>
<g>
</g>
<g>
</g>
<g>
</g>
</svg>
