<svg height="512pt" viewBox="0 0 512 512" width="512pt" xmlns="http://www.w3.org/2000/svg"><path d="m0 120h512v-120h-512zm391-90c16.539062 0 30 13.460938 30 30s-13.460938 30-30 30-30-13.460938-30-30 13.460938-30 30-30zm-210 15h30v30h-30zm-60 0h30v30h-30zm-60 0h30v30h-30zm0 0"/><path d="m0 270h512v-120h-512zm391-90c16.539062 0 30 13.460938 30 30s-13.460938 30-30 30-30-13.460938-30-30 13.460938-30 30-30zm-210 15h30v30h-30zm-60 0h30v30h-30zm-60 0h30v30h-30zm0 0"/><path d="m0 420h241v36.597656c-4.328125 2.566406-7.835938 6.074219-10.402344 10.402344h-230.597656v30h230.597656c5.226563 8.804688 14.421875 15 25.402344 15s20.175781-6.195312 25.402344-15h230.597656v-30h-230.597656c-2.566406-4.328125-6.074219-7.835938-10.402344-10.402344v-36.597656h241v-120h-512zm391-90c16.539062 0 30 13.460938 30 30s-13.460938 30-30 30-30-13.460938-30-30 13.460938-30 30-30zm-210 15h30v30h-30zm-60 0h30v30h-30zm-60 0h30v30h-30zm0 0"/></svg>