<svg id="Layer_1" enable-background="new 0 0 24 24" height="24" viewBox="0 0 24 24" width="24" xmlns="http://www.w3.org/2000/svg"><g><path d="m9.6 4.5s.1.1.1.1h.1c.2.2.5.3.7.4.1 0 .3.1.4.1.2 0 .3.1.4.1h.1.5.5.2c.1 0 .2 0 .3-.1h.2c.1 0 .1 0 .2-.1.1 0 .1 0 .2-.1h.1c.3-.1.5-.3.7-.4s.1-.1.1-.1c.1-.1.1-.3.1-.4 0-.6-1.1-1.2-2.6-1.2s-2.6.6-2.6 1.2c.1.1.1.3.3.5 0-.1 0 0 0 0z"/><path d="m4.1 7.6s.1.1.2.1c0 0 0 0 .1.1s.3.3.6.3c.1 0 .3.1.4.1h.1c.1 0 .3 0 .4.1h.1.5c1.5 0 2.6-.7 2.6-1.2 0-.1 0-.1-.1-.2 0 0 0 0 0-.1 0 0-.1-.1-.1-.1v-.1s-.1-.1-.2-.1c0 0 0-.1-.1-.1s-.2-.1-.3-.1-.1-.1-.2-.1h-.1s-.1-.1-.2-.1h-.1c-.1-.1-.2-.1-.2-.1-.3-.1-.6-.1-1-.1-1.5 0-2.7.7-2.7 1.2 0 .2.1.3.3.5-.1 0-.1 0 0 0z"/><path d="m12.5 15.2v5.9l9.4-5.5v-5.9z"/><path d="m2.2 15.6 9.4 5.5v-5.9l-9.4-5.5z"/><path d="m15.2 6.7c-.1 0-.1 0 0 0-.1.1-.2.1-.2.2v.1c0 .1-.1.1-.1.2 0 .6 1.1 1.2 2.6 1.2h.5.2.3.2.2c.4-.1.8-.3 1-.5s.1-.1.1-.1c.1-.1.2-.3.2-.4 0-.6-1.1-1.2-2.6-1.2-.3 0-.7 0-1 .1-.1 0-.2 0-.3.1h-.1c-.1 0-.2.1-.2.1-.1 0-.1 0-.1.1-.1 0-.1 0-.2.1s-.2.1-.2.1-.1 0-.1.1c-.1-.3-.2-.3-.2-.2z"/><path d="m20.5 8.4s-.1.1-.2.1c-.1.1-.2.2-.3.2-.1.1-.2.1-.3.1s-.2.1-.4.1c-.1 0-.2.1-.3.1-.2 0-.3.1-.5.1-.1 0-.2 0-.3.1-.3 0-.5.1-.8.1-2 0-3.6-.9-3.6-2.1 0-.2 0-.3.1-.5 0 0 .1-.1.1-.1 0-.1.1-.2.2-.3 0 0 .1-.1.1-.2.1-.1.2-.2.3-.2s.1-.1.2-.1c.1-.1.2-.1.4-.2 0 0 .1 0 .1-.1l-.3-.3c-.1.1-.3.2-.5.3-.1.1-.2.1-.3.1-.1.1-.2.1-.4.2-.1 0-.2.1-.3.1-.1.1-.2.1-.4.1-.1 0-.2 0-.3 0-.2 0-.5.1-.8.1s-.6 0-.8-.1c0 0-.1 0-.2 0-.2 0-.4-.1-.6-.1-.1 0-.1 0-.2-.1-.2 0-.3-.1-.5-.2 0 0-.1 0-.2-.1s-.3-.2-.4-.3l-.4.2s.1 0 .1.1c.1.1.2.1.3.2.1 0 .1.1.2.1.1.1.2.2.2.3l.2.2c.1.1.1.2.2.3 0 .1.1.1.1.1v.4c0 1.2-1.5 2.1-3.5 2.1-.3 0-.6 0-.8-.1-.1 0-.2 0-.2-.1-.2 0-.3-.1-.5-.1-.1.2-.2.1-.3.1-.2-.1-.3-.1-.4-.2-.1 0-.2 0-.3-.1s-.2-.1-.3-.2c0 0-.1 0-.1-.1l-1 .5 9.4 5.5 9.4-5.5zm-8.5 4c-2 0-3.5-.9-3.5-2.1s1.5-2.2 3.5-2.2 3.5.9 3.5 2.2c.1 1.2-1.5 2.1-3.5 2.1z"/><path d="m12 9.1c-1.5 0-2.6.6-2.6 1.2s1.1 1.2 2.6 1.2 2.6-.6 2.6-1.2c.1-.6-1.1-1.2-2.6-1.2z"/></g></svg>