<svg id="Layer_1" enable-background="new 0 0 66 66" height="512" viewBox="0 0 66 66" width="512" xmlns="http://www.w3.org/2000/svg"><g><g><path d="m19.8 58.7h-8.4c-.5 0-1 .5-1 1v4.3c0 .6.5 1 1 1h8.4c.6 0 1-.4 1-1v-4.3c0-.6-.4-1-1-1z"/></g><g><path d="m54.6 58.7h-8.4c-.5 0-1 .5-1 1v4.3c0 .6.5 1 1 1h8.4c.6 0 1-.4 1-1v-4.3c0-.6-.4-1-1-1z"/></g><g><path d="m1 61.8c0 .5.4 1 1 1h6.4v-2h-6.4c-.5 0-1 .5-1 1z"/></g><g><path d="m22.8 60.8h20.4v2h-20.4z"/></g><g><path d="m64 60.8h-6.4v2h6.4c.5 0 1-.5 1-1s-.5-1-1-1z"/></g><g><path d="m42.2 21.4h16.3v-5.4h-16.3zm5.3-3.7h5.9c.6 0 1 .4 1 1s-.4 1-1 1h-5.9c-.6 0-1-.4-1-1s.4-1 1-1z"/></g><g><path d="m42.2 46.1h16.3v-5.4h-16.3zm5.3-3.7h5.9c.6 0 1 .4 1 1s-.4 1-1 1h-5.9c-.6 0-1-.4-1-1s.4-1 1-1z"/></g><g><path d="m42.2 33.7h16.3v-5.4h-16.3zm5.3-3.7h5.9c.6 0 1 .4 1 1s-.4 1-1 1h-5.9c-.6 0-1-.4-1-1 0-.5.4-1 1-1z"/></g><g><path d="m64 1h-27.2c-.5 0-1 .4-1 1v50.5c0 .6.5 1 1 1h12.6v3.2h2v-3.2h12.6c.5 0 1-.4 1-1v-50.5c0-.6-.5-1-1-1zm-3.4 46.1c0 .6-.4 1-1 1h-18.4c-.6 0-1-.4-1-1v-7.4c0-.6.4-1 1-1h18.3c.6 0 1 .4 1 1v7.4zm0-12.4c0 .6-.4 1-1 1h-18.4c-.6 0-1-.4-1-1v-7.4c0-.6.4-1 1-1h18.3c.6 0 1 .4 1 1v7.4zm0-12.3c0 .6-.4 1-1 1h-18.4c-.6 0-1-.4-1-1v-7.4c0-.6.4-1 1-1h18.3c.6 0 1 .4 1 1v7.4zm-3.8-10.2c-2.1 0-3.8-1.7-3.8-3.8s1.7-3.8 3.8-3.8 3.8 1.7 3.8 3.8-1.7 3.8-3.8 3.8z"/></g><g><path d="m56.8 6.6c-1 0-1.8.8-1.8 1.8s.8 1.8 1.8 1.8 1.8-.8 1.8-1.8c0-.9-.8-1.8-1.8-1.8z"/></g><g><path d="m23.8 16h-16.4v5.4h16.3v-5.4zm-5.2 3.7h-5.9c-.6 0-1-.4-1-1s.4-1 1-1h5.9c.6 0 1 .4 1 1 0 .5-.5 1-1 1z"/></g><g><path d="m23.8 40.7h-16.4v5.4h16.3v-5.4zm-5.2 3.7h-5.9c-.6 0-1-.4-1-1s.4-1 1-1h5.9c.6 0 1 .4 1 1 0 .5-.5 1-1 1z"/></g><g><path d="m23.8 28.3h-16.4v5.4h16.3v-5.4zm-5.2 3.7h-5.9c-.6 0-1-.4-1-1s.4-1 1-1h5.9c.6 0 1 .4 1 1s-.5 1-1 1z"/></g><g><path d="m2 53.5h12.6v3.2h2v-3.2h12.6c.5 0 1-.4 1-1v-50.5c0-.6-.5-1-1-1h-27.2c-.5 0-1 .4-1 1v50.5c0 .5.5 1 1 1zm20-48.9c2.1 0 3.8 1.7 3.8 3.8s-1.7 3.8-3.8 3.8-3.8-1.7-3.8-3.8 1.7-3.8 3.8-3.8zm-16.6 10.4c0-.6.4-1 1-1h18.3c.6 0 1 .4 1 1v7.4c0 .6-.4 1-1 1h-18.3c-.6 0-1-.4-1-1zm0 12.3c0-.6.4-1 1-1h18.3c.6 0 1 .4 1 1v7.4c0 .6-.4 1-1 1h-18.3c-.6 0-1-.4-1-1zm0 12.4c0-.6.4-1 1-1h18.3c.6 0 1 .4 1 1v7.4c0 .6-.4 1-1 1h-18.3c-.6 0-1-.4-1-1z"/></g><g><path d="m22 10.2c1 0 1.8-.8 1.8-1.8s-.8-1.8-1.8-1.8-1.8.8-1.8 1.8.8 1.8 1.8 1.8z"/></g></g></svg>