<svg id="Layer_1" enable-background="new 0 0 512 512" height="512" viewBox="0 0 512 512" width="512" xmlns="http://www.w3.org/2000/svg"><path clip-rule="evenodd" d="m463.9 512c-19.6 0-36.1-13.8-40-32.3h-127.8c-4 18.5-20.5 32.3-40.1 32.3s-36.1-13.8-40-32.3h-127.8c-4 18.5-20.4 32.3-40.1 32.3-22.6 0-41-18.3-41-41 0-22.6 18.3-41 41-41 19.7 0 36.2 14 40.1 32.5h127.7c3.4-16.1 16.2-28.8 32.5-31.8v-69.9c5.7.2 11.4.2 17.1-.1v70.3c15.4 3.6 27.4 15.9 30.6 31.4h127.8c3.9-18.5 20.3-32.5 40.1-32.5 22.6 0 41 18.4 41 41-.1 22.8-18.5 41.1-41.1 41.1zm-371.5-289.6c16.3 53.4 58.1 95.9 111.1 113.2-8.2-8.6-15.8-19.4-22.6-32-12.4-23-21.1-50.9-25.7-81.2zm111.1-214c-53 17.4-94.8 59.8-111.1 113.3h62.8c4.6-30.4 13.3-58.3 25.7-81.3 6.7-12.7 14.4-23.3 22.6-32zm217.8 113.3c-16.4-53.4-58.1-95.9-111.1-113.3 8.2 8.6 15.8 19.3 22.6 32 12.4 23.2 21.1 51 25.7 81.3zm-111.1 213.9c53-17.3 94.7-59.7 111.1-113h-62.8c-4.6 30.3-13.3 58.1-25.7 81.2-6.8 12.5-14.4 23.2-22.6 31.8zm118.7-163.5c0-11.4-1.2-22.5-3.3-33.3h-64.9c1 10.9 1.6 22 1.6 33.3s-.5 22.5-1.6 33.4h64.9c2.1-10.9 3.3-22 3.3-33.4zm-172-172.1c-22.5 0-44.2 17.2-60.9 48.5-11.1 20.7-19.1 45.8-23.5 73.2h168.7c-4.4-27.4-12.4-52.5-23.5-73.2-16.7-31.3-38.3-48.5-60.8-48.5zm-88.4 172.1c0 11.3.5 22.5 1.7 33.4h173.2c1.2-10.9 1.7-22.1 1.7-33.4s-.7-22.4-1.7-33.3h-173.1c-1.2 10.8-1.8 22-1.8 33.3zm-83.7 0c0 11.4 1 22.5 3.2 33.4h65.1c-1.1-11-1.6-22.1-1.6-33.4 0-11.2.5-22.4 1.6-33.3h-65.1c-2 10.8-3.2 21.8-3.2 33.3zm111.2 123.5c16.7 31.3 38.4 48.5 61 48.5 22.5 0 44.2-17.3 60.9-48.5 11.1-20.8 19.1-45.8 23.4-73.2h-168.8c4.4 27.4 12.4 52.5 23.5 73.2z" fill-rule="evenodd"/></svg>