<svg id="Capa_1" enable-background="new 0 0 62.004 62.004" height="512" viewBox="0 0 62.004 62.004" width="512" xmlns="http://www.w3.org/2000/svg"><g><path d="m42.002 46h10v3h-10zm-13 0h2v3h-2zm-16-12h2c1.102 0 1.996.895 2 1.996 0 1.106-.895 2.004-2 2.004h-2c0-1.336 0-2.664 0-4zm0-10h2c1.102 0 1.996.895 2 2-.004 1.102-.895 1.996-2 1.996h-2c0-1.332 0-2.664 0-3.996zm14.004-1.004h16.996c1.105.004 2 .902 1.996 2.008v11.996c0 1.102-.895 1.996-1.996 2h-16.996c-1.106 0-2.004-.895-2.004-2v-11.996c-.004-1.109.895-2.008 2.004-2.008zm-25.004-22.996c-1.105 0-1.996.895-2 1.996v24.004c0 1.102.895 1.996 2 1.996h7v6.004h-7c-1.102 0-1.996.895-2 1.996v24c0 1.106.895 2.004 2 2.008 1.105 0 2.004-.898 2-2.008v-21.996h5v13c0 1.105.898 2 2.004 2 1.101 0 1.996-.895 1.996-2v-5h12v5c0 1.105.898 2 2.004 2h5.996c1.105 0 2-.895 2.004-2v-5h2.992v5c.004 1.105.902 2 2.008 2h13.996c1.105 0 2-.895 2.004-2v-5h3.996c1.105 0 2-.898 2-2v-26c-.004-1.105-.898-2-2-2h-47v-5c0-1.102-.895-1.996-1.996-2h-3.004c-1.105 0-2.004.895-2.004 2 .004 1.105.899 2 2.004 2h1v11h-5v-22.004c-.004-1.101-.898-1.996-2-1.996z"/></g></svg>