<?xml version="1.0"?>
<svg xmlns="http://www.w3.org/2000/svg" viewBox="0 0 512 512"><g id="Layer_9" data-name="Layer 9"><path d="M334.55,235.26A20.42,20.42,0,1,0,355,255.68,20.52,20.52,0,0,0,334.55,235.26Z"/><circle cx="211.3" cy="365.09" r="31.7" transform="translate(-55.75 38.56) rotate(-9.22)"/><path d="M508.63,176.37c-78.09-9-159.85-13.38-249.33-13.48-92,.1-176,4.77-256,14.26C1.33,199.72,0,225.81,0,256c.07,59.63,5.06,103.29,10.4,135.37,9.34,52.87,57.36,100.89,110.23,110.23,32.08,5.33,75.74,10.33,135.37,10.4s103.29-5.07,135.37-10.4c52.87-9.34,100.89-57.36,110.23-110.23,5.33-32.08,10.33-75.74,10.4-135.37C512,225.46,510.63,199.12,508.63,176.37Zm-204,204.16a12.09,12.09,0,0,1-10.1,9.47,25.76,25.76,0,0,0-6.7,1.85c-12.65,5.37-18.73,19.83-14,32A12.15,12.15,0,0,1,270,437.18,102.65,102.65,0,0,1,244.87,453a10.66,10.66,0,0,1-13.12-3.57,23.59,23.59,0,0,0-38.82.66,10.64,10.64,0,0,1-9.06,4.77,12.24,12.24,0,0,1-3.86-.79,100.7,100.7,0,0,1-27.33-16.64A11.89,11.89,0,0,1,149,423.72a23.55,23.55,0,0,0,1.85-7.81A25.58,25.58,0,0,0,128,389.08a12.09,12.09,0,0,1-10.48-9.65,78.46,78.46,0,0,1,.61-31.43,12.19,12.19,0,0,1,10.42-9.31,25.86,25.86,0,0,0,7.1-1.82c12.7-5.25,19-19.65,14.32-31.94a12.28,12.28,0,0,1,4.13-13.42,99.77,99.77,0,0,1,25.67-15.27,10.7,10.7,0,0,1,12.69,3.41,23,23,0,0,0,4.06,4.19,23.64,23.64,0,0,0,33.63-4.19,10.7,10.7,0,0,1,12.69-3.41,100,100,0,0,1,27.59,16.9,12.09,12.09,0,0,1,3.93,13,24.3,24.3,0,0,0-1.22,5.3,25.75,25.75,0,0,0,21.63,28,12,12,0,0,1,9.91,9.29,78,78,0,0,1,1.71,16.3A78.92,78.92,0,0,1,304.62,380.53Zm90-114.91a7.8,7.8,0,0,1-6.51,6.1,16.63,16.63,0,0,0-4.31,1.19,16.27,16.27,0,0,0-9,20.64,7.82,7.82,0,0,1-2.5,8.55,66.09,66.09,0,0,1-16.17,10.2,6.87,6.87,0,0,1-8.45-2.3,15.17,15.17,0,0,0-12.38-6.35,15,15,0,0,0-12.62,6.77,6.85,6.85,0,0,1-5.84,3.07,7.68,7.68,0,0,1-2.49-.51,64.7,64.7,0,0,1-17.6-10.71,7.67,7.67,0,0,1-2.39-8.83,15.37,15.37,0,0,0,1.2-5,16.48,16.48,0,0,0-14.71-17.28,7.79,7.79,0,0,1-6.75-6.22,51.2,51.2,0,0,1-.84-9.23,50,50,0,0,1,1.24-11,7.82,7.82,0,0,1,6.71-6,16.49,16.49,0,0,0,13.79-21.75,7.89,7.89,0,0,1,2.66-8.64,64.4,64.4,0,0,1,16.53-9.83,6.9,6.9,0,0,1,8.18,2.19,14.51,14.51,0,0,0,2.61,2.7,15.22,15.22,0,0,0,21.66-2.7,6.89,6.89,0,0,1,8.17-2.19,64.36,64.36,0,0,1,17.77,10.88,7.78,7.78,0,0,1,2.53,8.39,15.09,15.09,0,0,0-.78,3.41,16.58,16.58,0,0,0,13.93,18.06,7.72,7.72,0,0,1,6.38,6,47.34,47.34,0,0,1,0,20.44Z"/><path d="M259.3,134.89c88.2.1,169,4.35,246.28,13-1.25-9.9-2.61-19-4-27.23C492.26,67.76,444.24,19.74,391.37,10.4,359.29,5.07,315.63.07,256,0S152.71,5.06,120.63,10.4C67.76,19.74,19.74,67.76,10.4,120.63c-1.41,8.49-2.8,17.8-4.08,28C85.56,139.5,168.57,135,259.3,134.89Zm-40.41-73.4q90-1,179.88,4.05a19,19,0,1,1-2.12,37.94q-88.61-4.94-177.35-4a19,19,0,1,1-.41-38Zm-66.18,1.65a18.94,18.94,0,1,1-18.4,19.66A19,19,0,0,1,152.71,63.14ZM97,65.68a18.94,18.94,0,1,1-18,20A18.95,18.95,0,0,1,97,65.68Z"/></g></svg>
