<?xml version="1.0" encoding="iso-8859-1"?>
<!-- Generator: Adobe Illustrator 19.0.0, SVG Export Plug-In . SVG Version: 6.00 Build 0)  -->
<svg version="1.1" id="Capa_1" xmlns="http://www.w3.org/2000/svg" xmlns:xlink="http://www.w3.org/1999/xlink" x="0px" y="0px"
	 viewBox="0 0 512 512" style="enable-background:new 0 0 512 512;" xml:space="preserve">
<g>
	<g>
		<g>
			<path d="M356.571,102.91c-22.688,0-36.571,8.879-36.571,13.714s13.884,13.714,36.571,13.714c22.688,0,36.571-8.879,36.571-13.714
				S379.259,102.91,356.571,102.91z"/>
			<path d="M164.571,203.481c-22.688,0-36.571,8.879-36.571,13.714s13.884,13.714,36.571,13.714
				c22.688,0,36.571-8.879,36.571-13.714S187.259,203.481,164.571,203.481z"/>
			<path d="M260.571,153.196c-22.688,0-36.571,8.879-36.571,13.714s13.884,13.714,36.571,13.714
				c22.688,0,36.571-8.879,36.571-13.714S283.259,153.196,260.571,153.196z"/>
			<polygon points="192,309.639 192,471.934 512,307.609 512,145.314 			"/>
			<path d="M329.103,40.066L10.714,203.562l172.183,90.192l318.388-163.496L329.103,40.066z M164.571,249.196
				c-31.272,0-54.857-13.759-54.857-32s23.585-32,54.857-32c31.272,0,54.857,13.759,54.857,32S195.844,249.196,164.571,249.196z
				 M260.571,198.91c-31.272,0-54.857-13.759-54.857-32s23.585-32,54.857-32c31.272,0,54.857,13.759,54.857,32
				S291.844,198.91,260.571,198.91z M356.571,148.624c-31.272,0-54.857-13.759-54.857-32s23.585-32,54.857-32
				c31.272,0,54.857,13.759,54.857,32S387.844,148.624,356.571,148.624z"/>
			<polygon points="0,380.807 173.714,471.797 173.714,309.584 0,218.594 			"/>
		</g>
	</g>
</g>
<g>
</g>
<g>
</g>
<g>
</g>
<g>
</g>
<g>
</g>
<g>
</g>
<g>
</g>
<g>
</g>
<g>
</g>
<g>
</g>
<g>
</g>
<g>
</g>
<g>
</g>
<g>
</g>
<g>
</g>
</svg>
